# xmcd
#
# Track frame offsets:
#	150
#	19940
#	49508
#	78224
#	94791
#	118883
#	132930
#	148534
#	163755
#	178591
#	194262
#	214741
#	228248
#	240527
#	261503
#	274932
#	306464
#	316170
#
# Disc length: 4633 seconds
#
# Revision: 2
# Processed by: cddbd v1.5.1PL0 Copyright (c) Steve Scherf et al.
# Submitted via: Audio-CD-Archiv 4.00.511
#
DISCID=01121712
DTITLE=Korner, Alexis - Buxton '95-The Alexis Korner Memorial Concert [CD 1)
DYEAR=2002
DGENRE=blues
TTITLE0=Paul Jones: Not Me
TTITLE1=Paul Jones: Blue Collar
TTITLE2=unbekannt - Jack Bruce: Sittin' On Top Of The World
TTITLE3=unbekannt - Connie Lush and Blues Shouter: Big Ten Inch Record
TTITLE4=unbekannt - Connie Lush and Blues Shouter: Don't Play That Song
TTITLE5=unbekannt - Chris Farlowe: I Think It's Going To Rain Today
TTITLE6=unbekannt - Chris Farlowe: Love Me Baby
TTITLE7=unbekannt - Dave Berry: Route 66
TTITLE8=unbekannt - Mike Sanchez: Be Careful
TTITLE9=unbekannt - Mike Sanchez: Reconsider Baby
TTITLE10=unbekannt - Mick Abrahams: Billy The Kid
TTITLE11=unbekannt - Brian Knight and Toni Vines: Meet Me In The Bottom
TTITLE12=unbekannt - Brian Knight and Toni Vines: Hard Travellin'
TTITLE13=unbekannt - Tony McPhee: Groundhog Blues
TTITLE14=unbekannt - James Litherland: Another Time Baby
TTITLE15=unbekannt - The Detonators: She's Dynamite/Please Try To See It My Way
TTITLE16=unbekannt - The Detonators: Morning Glory
TTITLE17=unbekannt - Herbie Goins: Woke Up This Morning
EXTD=
EXTT0=
EXTT1=
EXTT2=
EXTT3=
EXTT4=
EXTT5=
EXTT6=
EXTT7=
EXTT8=
EXTT9=
EXTT10=
EXTT11=
EXTT12=
EXTT13=
EXTT14=
EXTT15=
EXTT16=
EXTT17=
PLAYORDER=
